# xmcd CD database file
#
# Track frame offsets:
#	150
#	11400
#	16903
#	26951
#	35145
#	42349
#	50957
#	64489
#	77214
#	88859
#	103418
#	117755
#	124566
#	137639
#	150378
#	160721
#	169075
#	185128
#
# Disc length: 2590 seconds
#
# Revision: 2
# Processed by: cddbd v1.5.2PL0 Copyright (c) Steve Scherf et al.
# Submitted via: CDex 1.70beta2
#
DISCID=fa0a1c12
DTITLE=Bokor Fekete Krisztina - Válogatott gyerekdalok
DYEAR=2000
DGENRE=Gyerekdal
TTITLE0=Luca Babám
TTITLE1=Sehallselát Dömötör
TTITLE2=Állatkerti útmutató
TTITLE3=Bóbita
TTITLE4=Balambér
TTITLE5=Ákom-bákom
TTITLE6=Esőben
TTITLE7=Hófehérke
TTITLE8=Kalózdal az almaszószról
TTITLE9=Csudálatos Mary
TTITLE10=A reggel messze még
TTITLE11=Csitt kicsi bébi
TTITLE12=Helikoffer
TTITLE13=Tíz kicsi cica
TTITLE14=Boldog születésnapot
TTITLE15=Suttog a fenyves
TTITLE16=Micimackó
TTITLE17=Játsszunk együtt
EXTD=YEAR: 2000
EXTT0=
EXTT1=
EXTT2=
EXTT3=
EXTT4=
EXTT5=
EXTT6=
EXTT7=
EXTT8=
EXTT9=
EXTT10=
EXTT11=
EXTT12=
EXTT13=
EXTT14=
EXTT15=
EXTT16=
EXTT17=
PLAYORDER=
